<?xml version="1.0" standalone="no"?>
<!DOCTYPE svg PUBLIC "-//W3C//DTD SVG 20010904//EN"
 "http://www.w3.org/TR/2001/REC-SVG-20010904/DTD/svg10.dtd">
<svg version="1.0" xmlns="http://www.w3.org/2000/svg"
 width="882.000000pt" height="1280.000000pt" viewBox="0 0 882.000000 1280.000000"
 preserveAspectRatio="xMidYMid meet">
<metadata>
Created by potrace 1.15, written by Peter Selinger 2001-2017
</metadata>
<g transform="translate(0.000000,1280.000000) scale(0.100000,-0.100000)"
fill="#000000" stroke="none">
<path d="M3790 12789 c-1197 -49 -2217 -229 -2804 -495 -209 -95 -340 -185
-429 -297 -78 -98 -78 -97 -75 -638 l3 -474 29 -54 c38 -74 123 -160 223 -228
l83 -57 0 -90 c0 -50 7 -446 15 -881 47 -2512 47 -4224 0 -6050 -8 -319 -18
-659 -22 -755 l-6 -175 -70 -45 c-84 -55 -201 -176 -231 -239 -20 -44 -21 -60
-24 -488 l-3 -442 -82 -39 c-299 -145 -437 -318 -383 -478 131 -389 1284 -700
3031 -818 499 -34 724 -41 1385 -41 633 0 879 7 1315 36 924 60 1676 172 2230
331 927 266 1106 644 455 963 -58 29 -126 60 -152 70 l-48 18 0 386 c0 291 -4
400 -14 444 -22 93 -75 161 -220 280 l-29 24 -13 419 c-40 1301 -58 2779 -50
3944 9 1217 36 3066 52 3506 l6 171 70 53 c77 59 135 129 170 205 23 49 23 56
26 494 2 282 -1 461 -7 492 -34 157 -166 286 -427 417 -508 254 -1434 443
-2509 512 -463 29 -1063 37 -1495 19z m3624 -2806 c42 -2114 46 -5030 9 -6835
-3 -174 -9 -322 -13 -328 -5 -8 -49 1 -146 29 -76 22 -177 49 -224 61 -122 30
-115 25 -92 62 80 131 164 338 197 482 28 120 42 328 34 476 -10 172 -18 255
-24 272 -3 7 -12 47 -19 88 -54 288 -159 520 -366 813 -65 91 -285 311 -405
406 -60 47 -117 92 -126 100 -53 44 -297 202 -667 433 -551 342 -704 456 -818
610 -81 110 -114 203 -114 325 0 96 14 139 76 233 44 67 164 191 244 252 133
100 329 224 511 321 46 25 148 79 227 121 78 42 144 76 147 76 16 0 423 252
500 310 315 237 553 520 675 799 41 94 96 265 116 356 46 219 70 614 44 745
-12 66 8 89 112 122 46 14 90 26 99 27 14 1 17 -38 23 -356z m-5955 316 c107
-29 122 -40 111 -80 -5 -18 -8 -73 -5 -123 3 -67 2 -79 -5 -46 -5 33 -7 16 -5
-65 7 -308 35 -488 111 -720 120 -367 355 -682 694 -932 97 -71 357 -236 427
-271 89 -43 367 -195 454 -248 423 -255 683 -493 767 -702 28 -69 26 -209 -4
-293 -71 -199 -260 -373 -707 -651 -601 -374 -816 -533 -1076 -797 -138 -142
-218 -239 -323 -396 -218 -327 -339 -695 -355 -1085 -7 -163 4 -351 18 -329 6
9 7 -2 3 -30 -6 -35 -4 -42 6 -36 10 6 12 4 7 -8 -9 -23 3 -78 15 -71 5 3 6
-6 2 -22 -5 -20 -4 -25 6 -19 9 5 10 2 5 -14 -4 -12 -2 -21 4 -21 6 0 7 -7 4
-17 -4 -9 -2 -14 3 -11 5 4 10 -6 11 -20 0 -15 6 -28 12 -30 5 -2 7 -10 4 -18
-3 -8 0 -14 7 -14 6 0 9 -4 5 -9 -7 -12 16 -62 26 -55 4 2 7 -4 7 -13 -1 -25
20 -73 31 -73 6 0 15 -10 22 -21 8 -15 8 -19 0 -15 -8 5 -8 0 0 -18 7 -14 16
-23 22 -19 6 3 7 1 3 -5 -7 -11 16 -55 25 -49 2 1 -1 -3 -8 -9 -7 -6 -38 -16
-70 -23 -32 -7 -123 -31 -201 -53 -79 -22 -146 -37 -149 -34 -9 9 -22 734 -34
2013 -10 1011 -10 1582 -1 2705 17 1958 31 2768 50 2768 3 0 40 -9 81 -21z"/>
</g>
</svg>
